<?xml version="1.0" encoding="UTF-8"?>
<svg width="297px" height="73px" viewBox="0 0 297 73" version="1.1" xmlns="http://www.w3.org/2000/svg" xmlns:xlink="http://www.w3.org/1999/xlink">
    <!-- Generator: Sketch 55.2 (78181) - https://sketchapp.com -->
    <title>syntixi-color</title>
    <desc>Created with Sketch.</desc>
    <g id="Syntixi" stroke="none" stroke-width="1" fill="none" fill-rule="evenodd">
        <g id="syntixi-color" transform="translate(0.000000, -22.000000)">
            <g id="Group-PURPLE" transform="translate(0.000000, 22.225806)">
                <path d="M44.092544,29.4693489 L33.8553549,23.566836 C32.6607809,22.8778738 31.1886428,22.8778738 29.9940687,23.566836 L19.7568797,29.4693489 L31.9245101,36.483871 L44.092544,29.4693489 Z M27.6926213,14.5216884 C27.7142174,15.2791439 27.351884,15.9963093 26.7012035,16.3750371 L26.55723,16.4556175 C25.9061496,16.8343453 25.1106958,16.7940551 24.4708134,16.3992112 C23.2246424,15.6216105 21.6073396,15.5450592 20.250389,16.3347469 C18.8930384,17.1244346 18.1519746,18.5748815 18.1939669,20.0495024 C18.2159628,20.806958 17.8532295,21.5200944 17.2025491,21.8988222 L17.0573757,21.9834316 C16.424692,22.3500723 15.6376366,22.3460433 15.02095,21.9511994 C13.6524015,21.0769023 11.8195383,21.0486992 10.3778032,22.1043021 C8.83448683,23.2324275 8.26619127,25.3436334 9.03285038,27.1002857 C10.0370658,29.4089136 12.7657644,30.2670946 14.868578,29.0422729 C16.1895352,28.2727302 16.9246001,26.8786897 16.9230004,25.4443589 C16.9222006,24.7151064 17.3421234,24.0462893 17.9716077,23.6796486 L18.2059647,23.5426619 C18.8350491,23.1760212 19.6193049,23.143789 20.2479894,23.5104298 C21.4797631,24.2316242 23.0458753,24.2840014 24.3668325,23.5184878 C25.6877898,22.7489452 26.4232546,21.3549046 26.4216549,19.9205738 C26.4204551,19.1872924 26.8407779,18.5225042 27.4702622,18.1558635 L27.7594091,17.9866447 C28.3668974,17.632091 29.120359,17.615975 29.7250479,17.9745576 C30.8988322,18.6675489 32.3805599,18.7561873 33.6651238,18.0994572 C33.6663236,18.0994572 33.6671234,18.0994572 33.6679233,18.0994572 C33.7251128,18.0672251 33.7819023,18.039022 33.838292,18.0067898 C33.8642872,17.9906737 33.8878829,17.9826157 33.9150779,17.9664996 C34.5561601,17.5797138 35.3560131,17.5877718 36.0018944,17.9624706 L36.1366696,18.043051 C36.7921492,18.4217788 37.1852769,19.1308861 37.179278,19.8923707 C37.1680801,21.3468466 37.9127432,22.7690903 39.2792921,23.5426619 C41.0993576,24.5740908 43.4637232,24.0342022 44.661903,22.3097821 C46.0192535,20.3557079 45.4705544,17.6804393 43.4937176,16.4233853 C42.1547637,15.5692333 40.5146651,15.5893784 39.2321008,16.3387759 C38.567023,16.7255618 37.756372,16.7537649 37.0912942,16.3669791 L36.9633177,16.2944567 C36.3182363,15.919758 35.9071118,15.2267667 35.9203094,14.4733401 C35.9207093,14.441108 35.9163101,14.4169339 35.9151103,14.3847017 C35.9163101,13.7440877 35.7727365,13.0994447 35.4671926,12.5031498 C34.3809923,10.3838858 31.7746712,9.63045929 29.7486435,10.8109619 C28.3916929,11.6006496 27.6502291,13.0470674 27.6926213,14.5216884 Z M53.678646,16.0728607 C54.5992768,14.4652821 54.0529772,12.4145114 52.4584702,11.483808 C50.8639632,10.5571337 48.824738,11.1091093 47.9041072,12.7166878 C46.9838763,14.3202374 47.5301759,16.3750371 49.1246829,17.3017115 C50.7191898,18.2283858 52.7580152,17.6804393 53.678646,16.0728607 Z M44.1923893,10.5571337 C45.1130201,8.94955507 44.5667205,6.89475538 42.9722135,5.96808101 C41.3777065,5.04140664 39.3388812,5.58935322 38.4182503,7.19693181 C37.4976195,8.80451039 38.0439191,10.8593101 39.6384261,11.7859845 C41.2329331,12.7126588 43.2717584,12.1606832 44.1923893,10.5571337 Z M9.93348487,16.0728607 C10.8541157,17.6804393 12.892941,18.2283858 14.487448,17.3017115 C16.081955,16.3750371 16.6282546,14.3202374 15.7076238,12.7166878 C14.786993,11.1091093 12.7481676,10.5571337 11.1536606,11.483808 C9.55915366,12.4145114 9.01285405,14.4652821 9.93348487,16.0728607 Z M19.4193417,10.5571337 C20.3399725,12.1606832 22.3787978,12.7126588 23.9733048,11.7859845 C25.5678118,10.8593101 26.1141114,8.80451039 25.1934806,7.19693181 C24.2728498,5.58935322 22.2340245,5.04140664 20.6395175,5.96808101 C19.0450105,6.89475538 18.4987109,8.94955507 19.4193417,10.5571337 Z M28.9051985,5.03737762 C29.8258293,6.6449562 31.8646547,7.19693181 33.4591617,6.26622842 C35.0540686,5.33955404 35.6003682,3.28475435 34.6797374,1.68120479 C33.7591065,0.0736262013 31.7202812,-0.478349403 30.1257742,0.452353988 C28.5312672,1.37902836 27.9845677,3.43382805 28.9051985,5.03737762 Z M1.6674039,17.0035641 C3.26191088,16.0768897 5.30113614,16.6248363 6.22136703,18.2324149 C7.14199785,19.8399934 6.59569824,21.8907641 5.00119126,22.8214675 C3.40668428,23.7481419 1.36785894,23.1961663 0.447228124,21.5926167 C-0.473402695,19.9850381 0.0728969137,17.9302384 1.6674039,17.0035641 L1.6674039,17.0035641 Z" id="Fill-7" fill="#00A9DC"></path>
                <path d="M31.9402026,36.4532757 L19.8323041,29.5146899 L19.8282895,29.5146899 L19.8282895,41.1959047 C19.8282895,42.5589124 20.5605444,43.8182996 21.7496557,44.4998034 L31.9365895,50.3384181 L31.9402026,50.3384181 L31.9402026,36.4532757 Z M15.0517718,50.8684766 C15.6941006,50.4779072 16.4925956,50.4340677 17.1457638,50.8086956 L17.2902878,50.892389 C17.9438573,51.2670169 18.307576,51.9764185 18.2858974,52.7216888 C18.2433432,54.1803461 18.9876417,55.615091 20.3497803,56.3962299 C21.7119188,57.1773688 23.335405,57.1016461 24.5867418,56.3364489 C25.2286692,55.941894 26.0275657,55.90204 26.6807338,56.2766678 L26.8264622,56.3603613 C27.4615648,56.7230329 27.8541883,57.4045367 27.8224733,58.12988 C27.7530215,59.7479534 28.6494717,61.3421144 30.2837971,62.0634723 C32.0329388,62.8366404 34.1377701,62.2826694 35.2714805,60.7522748 C36.7568659,58.7476174 36.1277851,55.9658064 34.016932,54.7582295 C32.6909244,53.9970176 31.1188246,54.0528132 29.8823416,54.7622149 C29.2512535,55.1248865 28.4644007,55.0930033 27.8325097,54.7303316 L27.5972568,54.594828 C26.9653658,54.2321563 26.5438375,53.5745649 26.5446404,52.8492217 C26.5462462,51.4304184 25.808371,50.0514691 24.4823634,49.2902572 C23.1559543,48.5330307 21.5838545,48.584841 20.347773,49.298228 C19.7162835,49.6608996 18.9294306,49.6290164 18.2975397,49.2663448 L18.0068859,49.0989579 C17.3974764,48.7482425 17.0044514,48.1065927 17.0096703,47.4091472 C17.0197067,46.0541104 16.3508818,44.7309567 15.1396905,43.9458324 C15.1388876,43.9458324 15.1380847,43.9458324 15.1372818,43.9458324 C15.0830853,43.9099638 15.0284874,43.8780806 14.9722836,43.842212 C14.9465904,43.8302558 14.9257147,43.8143141 14.8984158,43.7983725 C14.2448462,43.4357009 13.849814,42.7422409 13.849814,41.9969706 L13.849814,41.8415399 C13.849814,41.0882988 14.2637146,40.3988242 14.9245104,40.0281818 C16.1834749,39.3187801 17.0377722,37.9717141 17.0205096,36.4094363 C16.9972252,34.3290562 15.342827,32.555552 13.254054,32.3722235 C10.8878751,32.168968 8.85410148,33.9663845 8.75895652,36.2938596 C8.69472363,37.872079 9.53697731,39.2749407 10.8252481,40.0122401 C11.4928686,40.3948388 11.9264406,41.080328 11.9264406,41.8455253 L11.9264406,41.9929852 C11.9264406,42.7342701 11.53462,43.4317155 10.8806489,43.7943871 C10.8525471,43.8103287 10.8308685,43.8262704 10.8047738,43.842212 C10.2515681,44.1570588 9.76620842,44.6034238 9.40570136,45.1613802 C8.12345243,47.1461107 8.78143803,49.7685055 10.8148102,50.932243 C12.1773503,51.7133819 13.8004349,51.6336739 15.0517718,50.8684766 Z M3.34653321,27.6774194 C1.498232,27.6774194 0,29.1639745 0,30.9972597 C0,32.8345302 1.498232,34.3210854 3.34653321,34.3210854 C5.19483442,34.3210854 6.69306642,32.8345302 6.69306642,30.9972597 C6.69306642,29.1639745 5.19483442,27.6774194 3.34653321,27.6774194 Z M3.34653321,38.5934369 C1.498232,38.5934369 0,40.079992 0,41.9132771 C0,43.7505477 1.498232,45.2371028 3.34653321,45.2371028 C5.19483442,45.2371028 6.69306642,43.7505477 6.69306642,41.9132771 C6.69306642,40.079992 5.19483442,38.5934369 3.34653321,38.5934369 Z M25.3029385,65.4311374 C26.2266876,63.8409618 25.6782994,61.8084065 24.0776962,60.8917639 C22.4770931,59.9751214 20.4304728,60.5171361 19.5063222,62.1073117 C18.5821716,63.6974873 19.1305599,65.7300426 20.731163,66.6466852 C22.3317662,67.5633278 24.3787879,67.0173276 25.3029385,65.4311374 Z M15.7804135,59.971136 C16.7045642,58.3849458 16.1561759,56.3523905 14.5555728,55.4357479 C12.9549696,54.5151199 10.9083494,55.0611201 9.98419876,56.6512957 C9.06004816,58.2374859 9.6084364,60.2700411 11.2090396,61.1866837 C12.8096427,62.1073117 14.8562629,61.5613116 15.7804135,59.971136 Z M6.25829009,54.5151199 C7.18244069,52.9249443 6.63405245,50.892389 5.0334493,49.9757464 C3.43284614,49.0591039 1.38582445,49.605104 0.461673847,51.1912942 C-0.462075303,52.7814698 0.0863129366,54.8140251 1.68691609,55.7306677 C3.28751925,56.6473103 5.33413948,56.1052955 6.25829009,54.5151199 Z M30.2536879,72.1027012 C28.6530848,71.1860586 28.1046965,69.1535034 29.0288471,67.5673132 C29.9529977,65.9771375 31.999618,65.4311374 33.6002211,66.34778 C35.2008243,67.268408 35.7492125,69.2969778 34.8250619,70.8871535 C33.9009113,72.4773291 31.8542911,73.0193438 30.2536879,72.1027012 L30.2536879,72.1027012 Z" id="Fill-8" fill="#06396A"></path>
                <path d="M54.9255355,47.3894665 C54.9255355,49.7205787 52.944729,51.5974228 50.545265,51.4858482 C49.8699717,51.4539698 49.2332549,51.2587142 48.6749095,50.9439145 C48.6472967,50.9279752 48.6209022,50.9200056 48.5928834,50.9040664 C47.9447967,50.5215249 47.1310337,50.5334793 46.4760438,50.9040664 L46.3461015,50.9757929 C45.6708082,51.3583344 45.2862605,52.0755997 45.2862605,52.8406826 C45.2870726,54.3150613 44.4737156,55.7416222 43.0488182,56.4748267 C40.9453787,57.5586943 38.3315101,56.7059455 37.3163367,54.5700889 C36.4201415,52.6852752 37.1474118,50.3780719 38.9722876,49.3141284 C40.3419596,48.5211517 41.9621765,48.5809239 43.2242401,49.3101436 C43.8865393,49.692685 44.704363,49.7006546 45.3695047,49.3260828 L45.5063501,49.2463866 C46.1621521,48.8757996 46.5751247,48.1904128 46.5649729,47.4452538 C46.5649729,47.4133754 46.5678154,47.3894665 46.5682215,47.3615729 C46.5686276,47.2938312 46.571064,47.2300742 46.5743125,47.1663173 C46.5747186,47.1663173 46.5747186,47.1663173 46.5747186,47.1663173 C46.6543082,45.7317868 47.4822837,44.4964966 48.683843,43.827049 C49.3030988,43.4803708 49.6705916,42.8228776 49.6705916,42.1255363 L49.6705916,41.7908125 C49.6705916,41.0655777 49.3014745,40.3722212 48.6619152,40.0135886 C47.4095973,39.3042929 46.5657851,37.981337 46.5657851,36.4631254 C46.5657851,34.9409291 47.4095973,33.6179732 48.6619152,32.9086775 C49.3014745,32.5500449 49.6705916,31.8566884 49.6705916,31.1314535 L49.6705916,30.8644715 C49.6705916,30.1392366 49.3014745,29.4458801 48.6619152,29.0832627 C47.4095973,28.3779518 46.5657851,27.0549959 46.5657851,25.5327996 C46.5657851,23.1140217 48.7004918,21.185375 51.2221827,21.4563419 C53.1473577,21.6675367 54.6997609,23.1977026 54.9015774,25.090486 C55.0908057,26.8557555 54.1365427,28.4217847 52.6763172,29.1709284 C52.0188908,29.5056522 51.6164761,30.1830695 51.6164761,30.9122892 L51.6164761,31.0796511 C51.6164761,31.8287948 52.0562492,32.4942576 52.727888,32.8489054 C54.0362435,33.5422618 54.9255355,34.9010811 54.9255355,36.4631254 C54.9255355,38.021185 54.0362435,39.3800043 52.727888,40.0733607 C52.0562492,40.4280085 51.6164761,41.0934713 51.6164761,41.842615 L51.6164761,42.0099769 C51.6164761,42.7591207 52.0562492,43.4245835 52.727888,43.7792313 C54.0362435,44.4725877 54.9255355,45.8274221 54.9255355,47.3894665 Z M39.4214003,60.8979626 C41.040399,59.981457 43.1109468,60.5233907 44.0457185,62.1133288 C44.9804902,63.7032668 44.4253934,65.7355184 42.8063947,66.6520241 C41.1873961,67.5685297 39.1172544,67.0226111 38.1824827,65.4366579 C37.2477109,63.8467199 37.8024017,61.8144682 39.4214003,60.8979626 Z M49.0533661,55.4427617 C50.6723648,54.5222712 52.7425065,55.0681898 53.6772782,56.6581279 C54.6120499,58.2440811 54.0573591,60.2763327 52.4383605,61.1928383 C50.8193619,62.1133288 48.7492202,61.5674102 47.8144484,59.9774722 C46.8796767,58.3915189 47.4343675,56.3592673 49.0533661,55.4427617 Z M63.7762238,31.0079245 C63.7762238,32.8449206 62.2607728,34.3312536 60.3912294,34.3312536 C58.521686,34.3312536 57.006235,32.8449206 57.006235,31.0079245 C57.006235,29.1749133 58.521686,27.6885802 60.3912294,27.6885802 C62.2607728,27.6885802 63.7762238,29.1749133 63.7762238,31.0079245 Z M63.7762238,41.9223112 C63.7762238,43.7593073 62.2607728,45.2456403 60.3912294,45.2456403 C58.521686,45.2456403 57.006235,43.7593073 57.006235,41.9223112 C57.006235,40.0892999 58.521686,38.6029669 60.3912294,38.6029669 C62.2607728,38.6029669 63.7762238,40.0892999 63.7762238,41.9223112 Z M63.7762238,52.8366978 C63.7762238,54.6736939 62.2607728,56.160027 60.3912294,56.160027 C58.521686,56.160027 57.006235,54.6736939 57.006235,52.8366978 C57.006235,51.0036866 58.521686,49.5173535 60.3912294,49.5173535 C62.2607728,49.5173535 63.7762238,51.0036866 63.7762238,52.8366978 Z M60.3912294,16.7741935 C58.521686,16.7741935 57.006235,18.2605266 57.006235,20.0975227 C57.006235,21.9305339 58.521686,23.416867 60.3912294,23.416867 C62.2607728,23.416867 63.7762238,21.9305339 63.7762238,20.0975227 C63.7762238,18.2605266 62.2607728,16.7741935 60.3912294,16.7741935 Z M44.0559441,41.1404518 C44.0559441,42.5128858 43.3203328,43.7809827 42.1257712,44.4671997 L31.8921448,50.3461934 L31.8881119,50.3461934 L31.8881119,36.3650235 L44.0519111,29.3784515 L44.0559441,29.3784515 L44.0559441,41.1404518 L44.0559441,41.1404518 Z" id="Fill-9" fill="#0074B0"></path>
            </g>
            <g id="Group-2" transform="translate(76.363636, 0.000000)" fill="#06396A">
                <path d="M2.85314685,75.353871 L6.06293706,66.6564516 C6.96643808,67.1317228 8.08390943,67.6188685 9.41538462,68.1179032 C10.7468598,68.616938 12.149643,69.032794 13.6237762,69.3654839 C15.0979095,69.6981737 16.4531407,69.8645161 17.6895105,69.8645161 C19.3538545,69.8645161 20.7447497,69.6744105 21.8622378,69.2941935 C22.9797259,68.9139766 23.8118854,68.3793045 24.3587413,67.6901613 C24.9055971,67.0010181 25.179021,66.228714 25.179021,65.3732258 C25.179021,64.5652648 24.7629412,63.8048423 23.9307692,63.0919355 C23.0985972,62.3790287 22.0405659,61.654251 20.7566434,60.9175806 C19.4727209,60.1809103 18.1650416,59.4086062 16.8335664,58.6006452 C15.2167751,57.6025757 13.5524561,56.5688763 11.8405594,55.4995161 C10.1286628,54.4301559 8.5475597,53.2538774 7.0972028,51.9706452 C5.6468459,50.6874129 4.48182258,49.2497391 3.6020979,47.6575806 C2.72237322,46.0654221 2.28251748,44.2950635 2.28251748,42.3464516 C2.33007017,39.7799872 3.04334975,37.4868381 4.42237762,35.4669355 C5.8014055,33.4470329 7.79858832,31.8548983 10.413986,30.6904839 C13.0293837,29.5260694 16.1202619,28.943871 19.6867133,28.943871 C22.1119002,28.943871 24.5846028,29.300319 27.1048951,30.0132258 C29.6251874,30.7261326 31.8125781,31.6291343 33.6671329,32.7222581 L30.172028,40.8493548 C28.8405528,40.2790294 27.6279775,39.8156469 26.5342657,39.4591935 C25.440554,39.1027402 24.3587466,38.8175817 23.2888112,38.6037097 C22.2188758,38.3898376 21.0657404,38.2829032 19.8293706,38.2829032 C18.0699213,38.2829032 16.6314741,38.6512329 15.513986,39.3879032 C14.3964979,40.1245736 13.8377622,41.1345097 13.8377622,42.4177419 C13.8377622,43.3682843 14.218178,44.1999964 14.979021,44.9129032 C15.7398639,45.62581 16.7622313,46.3149429 18.0461538,46.9803226 C19.3300763,47.6457023 20.6615316,48.429888 22.0405594,49.3329032 C23.7524561,50.3309727 25.4762151,51.3527905 27.2118881,52.3983871 C28.9475611,53.4439837 30.5286642,54.6083807 31.9552448,55.8916129 C33.3818253,57.1748451 34.5349606,58.5887557 35.4146853,60.1333871 C36.29441,61.6780185 36.7342657,63.4721403 36.7342657,65.5158065 C36.7342657,68.1773251 35.9853222,70.5417639 34.4874126,72.6091935 C32.989503,74.6766232 30.8496643,76.3162843 28.0678322,77.5282258 C25.2860001,78.7401673 21.9216981,79.346129 17.9748252,79.346129 C16.8335607,79.346129 15.5734335,79.2391946 14.1944056,79.0253226 C12.8153777,78.8114505 11.4244825,78.5144105 10.0216783,78.1341935 C8.6188741,77.7539766 7.28741889,77.3262389 6.02727273,76.8509677 C4.76712657,76.3756965 3.70909519,75.8766693 2.85314685,75.353871 Z M50.21293,79.2748387 L51.2115314,76.9222581 L39.0143286,45.6258065 L49.570972,42.5603226 L57.1318111,64.09 L64.1933496,43.8435484 L75.605937,43.8435484 L60.2702727,82.7680645 C59.5094297,84.5740951 58.3444064,86.2612825 56.7751678,87.8296774 C55.2059291,89.3980724 53.4108422,90.7169301 51.3898531,91.7862903 C49.3688639,92.8556505 47.2884652,93.6517178 45.1485943,94.1745161 L41.2968461,85.2632258 C42.3905578,84.7879546 43.5674692,84.2532825 44.8276153,83.6591935 C46.0877615,83.0651046 47.2290088,82.3997349 48.2513915,81.6630645 C49.2737743,80.9263942 49.9276139,80.1303269 50.21293,79.2748387 Z M91.206316,78.4193548 L80.0077146,78.4193548 L80.0077146,43.8435484 L86.9265957,43.8435484 L88.8524698,47.4793548 C90.183945,46.6238667 91.6223922,45.8277994 93.1678545,45.091129 C94.7133167,44.3544587 96.2825318,43.7722602 97.8755468,43.3445161 C99.4685617,42.9167721 101.049665,42.7029032 102.618903,42.7029032 C105.662275,42.7029032 108.06365,43.3088649 109.823099,44.5208065 C111.582549,45.732748 112.854564,47.372409 113.639183,49.4398387 C114.423802,51.5072684 114.816106,53.8479439 114.816106,56.4619355 L114.816106,78.4193548 L103.688833,78.4193548 L103.688833,57.246129 C103.688833,55.5826799 103.332194,54.2638221 102.618903,53.2895161 C101.905613,52.3152102 100.811918,51.8280645 99.3377845,51.8280645 C98.4818362,51.8280645 97.5664607,51.9825253 96.5916307,52.2914516 C95.6168006,52.6003779 94.6657612,52.9924707 93.7384838,53.4677419 C92.8112065,53.9430131 91.967159,54.394514 91.206316,54.8222581 L91.206316,78.4193548 Z M142.825938,44.6277419 L144.823141,53.253871 L135.122442,53.253871 L135.122442,64.8741935 C135.122442,66.4901156 135.526633,67.7852102 136.335029,68.7595161 C137.143425,69.7338221 138.260896,70.2209677 139.687477,70.2209677 C140.353214,70.2209677 141.066494,70.1377965 141.827337,69.9714516 C142.58818,69.8051067 143.349011,69.5318299 144.109854,69.1516129 L147.319644,76.9222581 C146.796565,77.3500021 146.059509,77.7658582 145.108456,78.1698387 C144.157402,78.5738192 143.135034,78.9065041 142.041323,79.1679032 C140.947611,79.4293024 139.94902,79.56 139.045519,79.56 C136.192357,79.56 133.648327,79.0609727 131.413351,78.0629032 C129.178374,77.0648337 127.383288,75.5796335 126.028036,73.6072581 C124.672784,71.6348826 123.995169,69.2229175 123.995169,66.3712903 L123.995169,53.253871 L119.002162,53.253871 L119.002162,44.6277419 L123.995169,44.6277419 L123.995169,35.7877419 L135.122442,34.0767742 L135.122442,44.6277419 L142.825938,44.6277419 Z M163.111413,78.4193548 L151.912811,78.4193548 L151.912811,43.8435484 L163.111413,43.8435484 L163.111413,78.4193548 Z M157.476448,39.0670968 C155.812104,39.0670968 154.373656,38.4611351 153.161063,37.2491935 C151.948469,36.037252 151.342182,34.5995782 151.342182,32.936129 C151.342182,31.2251527 151.948469,29.7637157 153.161063,28.5517742 C154.373656,27.3398326 155.812104,26.733871 157.476448,26.733871 C159.140792,26.733871 160.591127,27.3398326 161.827497,28.5517742 C163.063866,29.7637157 163.682042,31.2251527 163.682042,32.936129 C163.682042,34.5995782 163.075754,36.037252 161.863161,37.2491935 C160.650567,38.4611351 159.188344,39.0670968 157.476448,39.0670968 Z M180.050613,78.4193548 L167.568095,78.4193548 L179.12334,61.0245161 L168.210053,45.5545161 L178.838026,42.7741935 L185.756907,53.5390323 L191.962501,43.8435484 L204.231032,43.8435484 L192.461802,62.093871 L203.660403,78.4193548 L191.249214,78.4193548 L185.756907,69.5080645 L180.050613,78.4193548 Z M219.854286,78.4193548 L208.655685,78.4193548 L208.655685,43.8435484 L219.854286,43.8435484 L219.854286,78.4193548 Z M214.219321,39.0670968 C212.554977,39.0670968 211.11653,38.4611351 209.903937,37.2491935 C208.691343,36.037252 208.085055,34.5995782 208.085055,32.936129 C208.085055,31.2251527 208.691343,29.7637157 209.903937,28.5517742 C211.11653,27.3398326 212.554977,26.733871 214.219321,26.733871 C215.883665,26.733871 217.334,27.3398326 218.57037,28.5517742 C219.80674,29.7637157 220.424916,31.2251527 220.424916,32.936129 C220.424916,34.5995782 219.818628,36.037252 218.606034,37.2491935 C217.393441,38.4611351 215.931218,39.0670968 214.219321,39.0670968 Z" id="Syntixi" fill-rule="nonzero"></path>
            </g>
        </g>
    </g>
</svg>