<?xml version="1.0" encoding="UTF-8"?>
<svg width="251px" height="286px" viewBox="0 0 251 286" version="1.1" xmlns="http://www.w3.org/2000/svg" xmlns:xlink="http://www.w3.org/1999/xlink">
    <!-- Generator: Sketch 55.2 (78181) - https://sketchapp.com -->
    <title>Group 2</title>
    <desc>Created with Sketch.</desc>
    <g id="Syntixi" stroke="none" stroke-width="1" fill="none" fill-rule="evenodd">
        <g id="Group-2" fill="#FFFFFE">
            <path d="M6.50087697,65.7437312 C12.7175433,62.1573975 20.668078,64.2780122 24.2574349,70.4995216 C27.8452326,76.721031 25.7153188,84.6577434 19.4986525,88.2596699 C13.2819861,91.8460036 5.33301063,89.7097961 1.74365372,83.5038795 C-1.84570318,77.2823702 0.284210603,69.330065 6.50087697,65.7437312" id="Fill-13"></path>
            <path d="M113.743533,19.4939662 C117.332755,25.7150766 125.28299,27.8511471 131.497864,24.2494516 C137.715856,20.6633478 139.845689,12.7115525 136.256467,6.50603383 C132.667245,0.284923384 124.71701,-1.85114712 118.502136,1.7505484 C112.284144,5.33665217 110.154311,13.2884475 113.743533,19.4939662" id="Fill-14"></path>
            <path d="M76.7436853,40.5038795 C80.3331072,46.7097961 88.2822265,48.8460036 94.4990054,45.2596699 C100.715784,41.6733362 102.845737,33.721031 99.2563147,27.4995216 C95.6668928,21.2780122 87.7177735,19.1573975 81.5009946,22.7437312 C75.2842157,26.330065 73.1542634,34.2823702 76.7436853,40.5038795" id="Fill-15"></path>
            <path d="M38.7436853,62.5003397 C42.3315479,68.7219818 50.2822265,70.8426418 56.4990054,67.2562316 C62.7157843,63.6698213 64.8457366,55.7173464 61.2563147,49.5112974 C57.6668928,43.2896553 49.7177735,41.1534022 43.5009946,44.7398125 C37.2842157,48.3418158 35.1542634,56.2786976 38.7436853,62.5003397" id="Fill-16"></path>
            <path d="M174.256315,40.5038795 C177.845737,34.2823702 175.715784,26.330065 169.499005,22.7437312 C163.282226,19.1573975 155.333107,21.2780122 151.743685,27.4995216 C148.154263,33.721031 150.284216,41.6733362 156.500995,45.2596699 C162.717774,48.8460036 170.666893,46.7097961 174.256315,40.5038795" id="Fill-17"></path>
            <path d="M211.256346,62.5003397 C214.845703,56.2786976 212.715789,48.3418158 206.499123,44.7398125 C200.282457,41.1534022 192.331922,43.2896553 188.742565,49.5112974 C185.154767,55.7173464 187.284681,63.6698213 193.501348,67.2562316 C199.718014,70.8426418 207.666989,68.7219818 211.256346,62.5003397" id="Fill-18"></path>
            <path d="M109.030731,56.7682695 C109.116017,59.7438241 107.685096,62.5611046 105.115439,64.0488819 L104.546861,64.3654303 C101.975625,65.8532076 98.8342319,65.6949334 96.3072185,64.1438464 C91.3858601,61.0891547 84.9988338,60.7884338 79.6399862,63.8906077 C74.2795591,66.9927817 71.3529618,72.6906523 71.5187971,78.4834874 C71.6056631,81.4590421 70.1731625,84.2604951 67.6035058,85.7482725 L67.0301896,86.0806482 C64.5316052,87.5209433 61.4233788,87.5051159 58.9879697,85.9540289 C53.5833199,82.5194791 46.3450061,82.4086872 40.6513291,86.5554708 C34.5564888,90.9871479 32.3121851,99.2807151 35.339863,106.18147 C39.3056945,115.25058 50.081827,118.62182 58.3862246,113.810285 C63.6029278,110.787248 66.5058344,105.310962 66.4995168,99.6764006 C66.4963581,96.8116379 68.1547106,94.1842864 70.6406599,92.7439914 L71.5661786,92.2058591 C74.0521279,90.7655641 77.1477193,90.6389447 79.6305099,92.0792398 C84.4950106,94.9123477 90.6798757,95.1181041 95.8965789,92.1108946 C101.114861,89.0878577 104.017768,83.611571 104.009871,77.9770101 C104.006712,75.0964199 105.666644,72.4848959 108.152594,71.0446008 L109.294488,70.3798493 C111.693571,68.9870364 114.669129,68.9237268 117.057157,70.332367 C121.692647,73.054683 127.544262,73.4028862 132.617241,70.823017 C132.62198,70.823017 132.625138,70.823017 132.628297,70.823017 C132.854149,70.6963976 133.078421,70.5856057 133.301114,70.4589864 C133.403774,70.3956767 133.496958,70.3640218 133.604356,70.3007122 C136.136108,68.78128 139.294874,68.8129348 141.847158,70.2848847 L142.37783,70.6014331 C144.96644,72.0892104 146.518974,74.8748361 146.495283,77.8662181 C146.45106,83.5799161 149.391872,89.1669948 154.787045,92.2058591 C161.976398,96.2576782 171.313713,94.1368042 176.045545,87.3626691 C181.405972,79.6863712 179.239058,69.1769655 171.432166,64.2388109 C166.144391,60.8833983 159.66734,60.9625354 154.602258,63.9064352 C151.975743,65.4258673 148.774333,65.5366592 146.147819,64.0172271 L145.642416,63.7323336 C143.094871,62.2603837 141.471264,59.5380677 141.523384,56.5783405 C141.524963,56.4517211 141.50759,56.3567566 141.502852,56.2301373 C141.50759,53.7135778 140.940592,51.1811908 139.733943,48.8387329 C135.444338,40.5135109 125.151496,37.5537836 117.15034,42.1912172 C111.791493,45.2933912 108.863316,50.9754344 109.030731,56.7682695" id="Fill-19"></path>
            <path d="M118.500995,284.256232 C112.284216,280.669821 110.154263,272.717346 113.743685,266.511297 C117.331548,260.289655 125.282226,258.153402 131.499005,261.739812 C137.715784,265.341816 139.845737,273.278698 136.256315,279.50034 C132.666893,285.721982 124.717774,287.842642 118.500995,284.256232" id="Fill-20"></path>
            <path d="M24.2563463,213.500478 C27.8457032,207.278969 25.7157894,199.326664 19.499123,195.74033 C13.2824567,192.153996 5.33192196,194.290204 1.74256506,200.49612 C-1.84523261,206.71763 0.284681172,214.669935 6.50134754,218.256269 C12.7180139,221.842602 20.6669894,219.721988 24.2563463,213.500478" id="Fill-21"></path>
            <path d="M62.2563147,236.493966 C65.8457366,230.288447 63.7157843,222.336652 57.4990054,218.750548 C51.2822265,215.148853 43.3331072,217.284923 39.7436853,223.506034 C36.1542634,229.711553 38.2842157,237.663348 44.5009946,241.249452 C50.7177735,244.851147 58.6668928,242.715077 62.2563147,236.493966" id="Fill-22"></path>
            <path d="M99.2563147,258.50388 C102.845737,252.28237 100.715784,244.330065 94.4990054,240.743731 C88.2822265,237.157398 80.3331072,239.278012 76.7436853,245.499522 C73.1542634,251.721031 75.2842157,259.673336 81.5009946,263.25967 C87.7177735,266.846004 95.6684521,264.709796 99.2563147,258.50388" id="Fill-23"></path>
            <path d="M13,151 C5.82005758,151 0,156.817636 0,163.992202 C0,171.182364 5.82005758,177 13,177 C20.1799424,177 26,171.182364 26,163.992202 C26,156.817636 20.1799424,151 13,151" id="Fill-24"></path>
            <path d="M13,109 C5.82005758,109 0,114.817636 0,121.992202 C0,129.182364 5.82005758,135 13,135 C20.1799424,135 26,129.182364 26,121.992202 C26,114.817636 20.1799424,109 13,109" id="Fill-25"></path>
            <path d="M59.6742105,200.298822 C62.1868967,198.752346 65.3140045,198.578762 67.8706902,200.062117 L68.4363981,200.393505 C70.9946552,201.87686 72.4183536,204.685766 72.3334974,207.636696 C72.1669278,213.412313 75.0803238,219.093248 80.4121212,222.186201 C85.7439187,225.279154 92.0987047,224.979327 96.9967928,221.949495 C99.5094789,220.387238 102.636587,220.229434 105.193272,221.71279 L105.763695,222.044177 C108.249667,223.480191 109.786507,226.178635 109.662365,229.050663 C109.390511,235.457495 112.899472,241.769645 119.296686,244.625892 C126.143324,247.687285 134.382231,245.493813 138.819896,239.434149 C144.634117,231.496621 142.171716,220.48192 133.909237,215.700467 C128.718866,212.686416 122.565221,212.907341 117.726846,215.716248 C115.255017,217.152262 112.175051,217.026019 109.701651,215.590005 L108.780804,215.053472 C106.307403,213.617458 104.657421,211.013696 104.660564,208.141668 C104.66685,202.523855 101.778596,197.063846 96.5866545,194.049794 C91.396284,191.051523 85.2426386,191.256668 80.4042642,194.081355 C77.9324347,195.517369 74.8524692,195.391126 72.3790683,193.955112 L71.2413667,193.292336 C68.8559649,191.903663 67.3175535,189.363023 67.3379819,186.601458 C67.3772671,181.236131 64.7592964,175.997047 60.0183495,172.888313 C60.0152067,172.888313 60.0120639,172.888313 60.008921,172.888313 C59.7967805,172.74629 59.5830687,172.620047 59.3630711,172.478023 C59.2625008,172.430682 59.1807874,172.367561 59.0739315,172.304439 C56.5156744,170.868425 54.969406,168.12264 54.969406,165.17171 L54.969406,164.556276 C54.969406,161.573785 56.5895307,158.84378 59.1760732,157.376205 C64.1040181,154.567299 67.4479806,149.233533 67.38041,143.047626 C67.2892681,134.810271 60.8134835,127.788004 52.6374321,127.062107 C43.3755358,126.257308 35.4147677,133.374257 35.0439147,142.589995 C34.7909176,148.839023 38.0877378,154.393715 43.1303957,157.313084 C45.7436521,158.828 47.440776,161.542224 47.440776,164.572056 L47.440776,165.15593 C47.440776,168.091079 45.9070789,170.852645 43.3472504,172.288659 C43.2372516,172.35178 43.1523954,172.414902 43.0502537,172.478023 C40.8848494,173.724673 38.9850135,175.492075 37.5738864,177.701327 C32.5547997,185.559953 35.1303423,195.943439 43.089539,200.551308 C48.4229078,203.644262 54.7761225,203.328654 59.6742105,200.298822" id="Fill-26"></path>
            <path d="M162.513018,168.912304 L128.45276,188.510925 L128.45276,144.025664 L167.083459,121.80657 L167.092905,161.019504 C167.092905,164.267635 165.337465,167.296084 162.513018,168.912304 Z M83.9070947,161.019504 L83.916541,121.80657 L122.54724,144.025664 L122.54724,188.510925 L88.4885567,168.912304 C85.6625346,167.296084 83.9070947,164.267635 83.9070947,161.019504 Z M120.919325,97.1239185 C122.309508,96.3236545 123.89334,95.8999853 125.499213,95.8999853 C127.105086,95.8999853 128.690492,96.3236545 130.080675,97.1239185 L164.128337,116.706849 L125.499213,138.925942 L86.8716627,116.706849 L120.919325,97.1239185 Z M172.988979,115.012172 L133.034222,92.0241971 C130.702557,90.6747324 128.101672,90 125.499213,90 C122.898328,90 120.297443,90.6747324 117.965778,92.0241971 L78.0094463,115.012172 L78,161.019504 C78,166.370289 80.8716793,171.328787 85.5350094,174.012025 L125.499213,197 L165.464991,174.012025 C170.126746,171.328787 173,166.370289 173,161.019504 L172.988979,115.012172 L172.988979,115.012172 Z" id="Fill-27"></path>
            <path d="M238,66 C230.820058,66 225,71.8176365 225,79.0077984 C225,86.1823635 230.820058,92 238,92 C245.179942,92 251,86.1823635 251,79.0077984 C251,71.8176365 245.179942,66 238,66" id="Fill-28"></path>
            <path d="M251,206.992202 C251,214.182364 245.179942,220 238,220 C230.820058,220 225,214.182364 225,206.992202 C225,199.817636 230.820058,194 238,194 C245.179942,194 251,199.817636 251,206.992202" id="Fill-29"></path>
            <path d="M251,163.992202 C251,171.182364 245.179942,177 238,177 C230.820058,177 225,171.182364 225,163.992202 C225,156.817636 230.820058,151 238,151 C245.179942,151 251,156.817636 251,163.992202" id="Fill-30"></path>
            <path d="M251,121.992202 C251,129.182364 245.179942,135 238,135 C230.820058,135 225,129.182364 225,121.992202 C225,114.817636 230.820058,109 238,109 C245.179942,109 251,114.817636 251,121.992202" id="Fill-31"></path>
            <path d="M193.500995,218.750548 C199.717774,215.148853 207.666893,217.284923 211.256315,223.506034 C214.845737,229.711553 212.715784,237.663348 206.499005,241.249452 C200.282226,244.851147 192.331548,242.715077 188.743685,236.493966 C185.154263,230.288447 187.284216,222.336652 193.500995,218.750548" id="Fill-32"></path>
            <path d="M156.500622,240.743731 C162.71737,237.157398 170.668008,239.278012 174.257412,245.499522 C177.845257,251.721031 175.715315,259.673336 169.498567,263.25967 C163.28182,266.846004 155.33274,264.709796 151.743336,258.50388 C148.153933,252.28237 150.285433,244.330065 156.500622,240.743731" id="Fill-33"></path>
            <path d="M217,187.061457 C217,196.316503 209.293488,203.768002 199.958149,203.325026 C197.330857,203.198461 194.853651,202.423252 192.681356,201.173425 C192.573926,201.110143 192.471236,201.078502 192.362226,201.015219 C189.840784,199.496442 186.674763,199.543904 184.126464,201.015219 L183.620911,201.29999 C180.993619,202.818767 179.497501,205.666473 179.497501,208.704027 C179.50066,214.557646 176.336219,220.221419 170.792522,223.132408 C162.608895,227.435609 152.439395,224.050002 148.489768,215.570164 C145.003037,208.087024 147.83255,198.926901 154.9324,194.702803 C160.261237,191.554505 166.564842,191.791814 171.475018,194.686982 C174.051755,196.205759 177.233574,196.2374 179.82137,194.750265 L180.35378,194.433853 C182.905239,192.962538 184.511947,190.241396 184.472451,187.282945 C184.470871,187.15638 184.48351,187.061457 184.48509,186.950712 C184.48667,186.681762 184.496149,186.428633 184.508787,186.175503 C184.510367,186.175503 184.510367,186.175503 184.510367,186.175503 C184.818438,180.48009 188.041334,175.575706 192.716113,172.917847 C195.123805,171.541455 196.55515,168.931058 196.55515,166.162454 L196.55515,164.833524 C196.55515,161.954176 195.117486,159.201393 192.630801,157.77754 C187.758541,154.961474 184.475611,149.709038 184.475611,143.681392 C184.475611,137.637926 187.758541,132.385489 192.630801,129.569423 C195.117486,128.14557 196.55515,125.392787 196.55515,122.513439 L196.55515,121.437639 C196.55515,118.574112 195.117486,115.821328 192.630801,114.381655 C187.758541,111.58141 184.475611,106.328973 184.475611,100.285507 C184.475611,90.6824069 192.780886,83.0252401 202.59176,84.1010404 C210.081833,84.9395318 216.121603,91.0146393 216.906789,98.5294208 C217.642999,105.537943 213.93035,111.755436 208.250786,114.729708 C205.691428,116.058637 204.125795,118.748138 204.125795,121.643306 L204.125795,122.307771 C204.125795,125.282043 205.836774,127.924082 208.449847,129.332114 C213.540127,132.084898 217,137.47972 217,143.681392 C217,149.867244 213.540127,155.262066 208.449847,158.014849 C205.836774,159.422881 204.125795,162.06492 204.125795,165.039192 L204.125795,165.703657 C204.125795,168.677928 205.836774,171.319967 208.449847,172.728 C213.540127,175.480783 217,180.859784 217,187.061457" id="Fill-34"></path>
        </g>
    </g>
</svg>