<?xml version="1.0" encoding="UTF-8"?>
<svg width="152px" height="173px" viewBox="0 0 152 173" version="1.1" xmlns="http://www.w3.org/2000/svg" xmlns:xlink="http://www.w3.org/1999/xlink">
    <!-- Generator: Sketch 55.2 (78181) - https://sketchapp.com -->
    <title>syntixi-logo</title>
    <desc>Created with Sketch.</desc>
    <g id="Syntixi" stroke="none" stroke-width="1" fill="none" fill-rule="evenodd">
        <g id="syntixi-logo">
            <g id="Group-PURPLE">
                <path d="M105.08723,70.2730627 L80.6885959,56.1978398 C77.8415277,54.5549298 74.332932,54.5549298 71.4858638,56.1978398 L47.0872299,70.2730627 L76.0867491,87 L105.08723,70.2730627 Z M66.0007475,34.6286415 C66.0522181,36.4348817 65.1886568,38.1450453 63.6378684,39.0481654 L63.2947315,39.2403186 C61.74299,40.1434387 59.8471584,40.0473621 58.3221053,39.1058114 C55.3520644,37.2515328 51.4974928,37.0689873 48.2634271,38.9520888 C45.0284082,40.8351903 43.2622061,44.2939481 43.3622877,47.810352 C43.4147114,49.6165922 42.550197,51.3171481 40.9994086,52.2202682 L40.6534122,52.4220291 C39.145516,53.2963262 37.2697007,53.2867186 35.7999308,52.3451678 C32.5382235,50.2603054 28.1698996,50.1930518 24.7337643,52.7102589 C21.0555269,55.4004039 19.7010892,60.4348181 21.5282934,64.6237582 C23.9216736,70.1289478 30.4250718,72.1753795 35.4367775,69.2546507 C38.585059,67.4195875 40.3369637,64.0953369 40.333151,60.6750097 C40.3312447,58.9360231 41.3320608,57.3411514 42.8323318,56.4668543 L43.3908825,56.1401938 C44.8902003,55.2658967 46.7593435,55.1890354 48.2577081,56.0633325 C51.1934353,57.7831038 54.9260027,57.9080034 58.0742842,56.0825478 C61.2225656,54.2474846 62.9754235,50.923234 62.9716109,47.5029068 C62.9687514,45.7543126 63.9705206,44.1690486 65.4707916,43.2947514 L66.159925,42.8912297 C67.6077722,42.0457555 69.4035222,42.0073249 70.8446974,42.8624067 C73.6422166,44.5149243 77.1736677,44.7262929 80.2352117,43.1602442 C80.2380712,43.1602442 80.2399775,43.1602442 80.2418838,43.1602442 C80.3781855,43.0833829 80.5135339,43.0161293 80.6479292,42.939268 C80.7098845,42.9008373 80.7661208,42.881622 80.8309356,42.8431914 C82.3588482,41.920856 84.2651645,41.9400713 85.804515,42.8335837 L86.1257293,43.0257369 C87.6879555,43.928857 88.62491,45.6198053 88.6106126,47.4356532 C88.5839242,50.9040187 90.3587047,54.2955229 93.6156462,56.1401938 C97.9534691,58.5997549 103.58854,57.3123284 106.444202,53.2002496 C109.679221,48.5405342 108.371488,42.1610475 103.660027,39.1634573 C100.468853,37.1266333 96.5599518,37.1746716 93.5031735,38.9616965 C91.9180715,39.8840319 89.9860199,39.9512855 88.4009178,39.0289501 L88.0959072,38.8560122 C86.5584631,37.9624997 85.5786165,36.3099821 85.6100707,34.5133495 C85.6110238,34.4364883 85.6005391,34.3788423 85.5976796,34.301981 C85.6005391,32.774363 85.2583553,31.2371372 84.5301425,29.8152035 C81.9413649,24.7615739 75.729633,22.9649414 70.9009337,25.779986 C67.666868,27.6630875 65.8997128,31.1122377 66.0007475,34.6286415 Z M127.934106,38.3275908 C130.128276,34.4941342 128.826262,29.6038349 125.026021,27.3844653 C121.225779,25.1747033 116.365626,26.4909529 114.171455,30.3244095 C111.978238,34.1482584 113.280253,39.0481654 117.080494,41.2579274 C120.880736,43.4676893 125.739936,42.1610475 127.934106,38.3275908 Z M105.325194,25.1747033 C107.519365,21.3412467 106.21735,16.4413398 102.417109,14.2315778 C98.6168671,12.0218158 93.7576668,13.3284577 91.5634967,17.1619143 C89.3693265,20.9953709 90.6713406,25.8952779 94.4715822,28.1050399 C98.2718239,30.3148018 103.131024,28.9985523 105.325194,25.1747033 Z M23.6748056,38.3275908 C25.8689757,42.1610475 30.7281761,43.4676893 34.5284178,41.2579274 C38.3286594,39.0481654 39.6306735,34.1482584 37.4365033,30.3244095 C35.2423332,26.4909529 30.3831329,25.1747033 26.5828912,27.3844653 C22.7826496,29.6038349 21.4806355,34.4941342 23.6748056,38.3275908 Z M46.2827644,25.1747033 C48.4769345,28.9985523 53.3361349,30.3148018 57.1363765,28.1050399 C60.9366182,25.8952779 62.2386322,20.9953709 60.0444621,17.1619143 C57.850292,13.3284577 52.9910916,12.0218158 49.19085,14.2315778 C45.3906083,16.4413398 44.0885943,21.3412467 46.2827644,25.1747033 Z M68.8907231,12.0122082 C71.0848933,15.8456648 75.9440936,17.1619143 79.7443353,14.9425447 C83.5455301,12.7327827 84.8475441,7.83287576 82.653374,4.0090268 C80.4592039,0.175570172 75.6000035,-1.14067934 71.7997619,1.07869028 C67.9995202,3.28845224 66.696553,8.1883592 68.8907231,12.0122082 Z M3.97397929,40.5469605 C7.77422093,38.3371985 12.6343745,39.6438404 14.8275914,43.477297 C17.0217616,47.3107536 15.7197475,52.2010529 11.9195058,54.4204225 C8.11926419,56.6301845 3.26006382,55.313935 1.0658937,51.490086 C-1.12827642,47.6566294 0.173737644,42.7567224 3.97397929,40.5469605 L3.97397929,40.5469605 Z" id="Fill-7" fill="#00A9DC"></path>
                <path d="M76.1241494,86.9270421 L47.2669914,70.3811836 L47.2574234,70.3811836 L47.2574234,98.2363881 C47.2574234,101.486637 49.0026309,104.489791 51.8366793,106.114916 L76.1155382,120.037766 L76.1241494,120.037766 L76.1241494,86.9270421 Z M35.8733894,121.301752 C37.4042731,120.370394 39.3073529,120.265854 40.8640703,121.159197 L41.2085192,121.358774 C42.7661933,122.252117 43.6330562,123.943767 43.5813889,125.72095 C43.4799679,129.199287 45.2538794,132.620602 48.5003096,134.483317 C51.7467399,136.346033 55.6160485,136.165464 58.5984013,134.340763 C60.1283282,133.399901 62.0323649,133.304865 63.5890822,134.198208 L63.9364015,134.397785 C65.4500628,135.262617 66.3858154,136.887741 66.310228,138.617406 C66.1447012,142.475889 68.2812408,146.27735 72.1763831,147.997511 C76.3451708,149.841219 81.3616853,148.520212 84.0636951,144.870809 C87.6038637,140.090472 86.1045544,133.456923 81.0736878,130.577316 C77.9133698,128.762119 74.1665319,128.89517 71.2195807,130.58682 C69.7154875,131.451652 67.8401549,131.375623 66.3341481,130.510791 L65.7734619,130.187667 C64.2674551,129.322834 63.2628126,127.754732 63.2647263,126.025067 C63.2685535,122.641767 61.5099508,119.353503 58.3496327,117.538306 C55.1883579,115.732612 51.44152,115.856159 48.4955256,117.557313 C46.9904756,118.422145 45.115143,118.346116 43.6091362,117.481284 L42.9164113,117.08213 C41.4639854,116.245809 40.5272759,114.715721 40.5397143,113.052582 C40.5636344,109.82134 38.9696017,106.666128 36.0829291,104.793908 C36.0810155,104.793908 36.0791019,104.793908 36.0771883,104.793908 C35.94802,104.708375 35.8178949,104.632346 35.6839426,104.546813 C35.6227072,104.518302 35.5729535,104.480288 35.5078909,104.442273 C33.9502167,103.577441 33.0087233,101.923805 33.0087233,100.146622 L33.0087233,99.7759798 C33.0087233,97.9797895 33.9951865,96.3356577 35.5700831,95.451818 C38.5706152,93.760168 40.6066905,90.5479335 40.565548,86.8225019 C40.5100535,81.8615955 36.5670711,77.6324702 31.5888286,77.1953022 C25.9494357,76.710616 21.1022752,80.9967631 20.875513,86.546896 C20.7224247,90.3103422 22.7297959,93.6556278 25.8001746,95.4138034 C27.3913368,96.326154 28.4246833,97.9607822 28.4246833,99.7854834 L28.4246833,100.137119 C28.4246833,101.904798 27.4908443,103.567937 25.9322133,104.432769 C25.8652371,104.470784 25.8135698,104.508799 25.7513777,104.546813 C24.4329041,105.297602 23.2761301,106.362011 22.4169216,107.692522 C19.360895,112.425341 20.929094,118.678744 25.7752977,121.45381 C29.0226848,123.316526 32.8910366,123.126453 35.8733894,121.301752 Z M7.97590415,66 C3.57078626,66 0,69.5448623 0,73.9165422 C0,78.2977259 3.57078626,81.8425881 7.97590415,81.8425881 C12.381022,81.8425881 15.9518083,78.2977259 15.9518083,73.9165422 C15.9518083,69.5448623 12.381022,66 7.97590415,66 Z M7.97590415,92.0305033 C3.57078626,92.0305033 0,95.5753655 0,99.9470455 C0,104.328229 3.57078626,107.873091 7.97590415,107.873091 C12.381022,107.873091 15.9518083,104.328229 15.9518083,99.9470455 C15.9518083,95.5753655 12.381022,92.0305033 7.97590415,92.0305033 Z M60.3053367,156.028097 C62.5069388,152.23614 61.1999468,147.389277 57.385176,145.203437 C53.5704051,143.017597 48.6926269,144.310094 46.490068,148.102051 C44.287509,151.894008 45.594501,156.740871 49.4092718,158.926711 C53.2240427,161.112551 58.1027777,159.81055 60.3053367,156.028097 Z M37.6099856,143.008093 C39.8125446,139.22564 38.5055526,134.378777 34.6907817,132.192937 C30.8760109,129.997594 25.9982327,131.299594 23.7956737,135.091551 C21.5931148,138.874005 22.9001067,143.720867 26.7148776,145.906707 C30.5296485,148.102051 35.4074267,146.800051 37.6099856,143.008093 Z M14.9155914,129.997594 C17.1181503,126.205636 15.8111584,121.358774 11.9963875,119.172934 C8.18161664,116.987094 3.30288161,118.289094 1.10032267,122.071548 C-1.10127947,125.863505 0.205712499,130.710368 4.02048335,132.896208 C7.8352542,135.082048 12.7130324,133.789551 14.9155914,129.997594 Z M72.1046229,171.937211 C68.289852,169.751371 66.9828601,164.904508 69.185419,161.122054 C71.387978,157.330097 76.2657562,156.028097 80.080527,158.213937 C83.8952979,160.409281 85.2022899,165.246639 82.9997309,169.038597 C80.797172,172.830554 75.9193937,174.123051 72.1046229,171.937211 L72.1046229,171.937211 Z" id="Fill-8" fill="#06396A"></path>
                <path d="M130.90586,113.005651 C130.90586,118.564457 126.184938,123.040008 120.466215,122.773946 C118.856766,122.697928 117.339257,122.232319 116.008534,121.481642 C115.942724,121.443633 115.879817,121.424629 115.813039,121.38662 C114.268432,120.474406 112.328964,120.502912 110.767904,121.38662 L110.458209,121.55766 C108.848759,122.469874 107.932254,124.180276 107.932254,126.004705 C107.93419,129.520531 105.995689,132.92233 102.599683,134.670741 C97.586486,137.255348 91.3567658,135.22187 88.937269,130.128674 C86.8013373,125.634118 88.5346648,120.132325 92.8839521,117.595229 C96.1483371,115.704285 100.009854,115.846818 103.017772,117.585727 C104.596252,118.497941 106.545399,118.516946 108.130653,117.623736 L108.456801,117.433691 C110.019796,116.549984 111.004047,114.9156 110.979852,113.138682 C110.979852,113.062664 110.986627,113.005651 110.987595,112.939135 C110.988562,112.777597 110.994369,112.625562 111.002112,112.473526 C111.003079,112.473526 111.003079,112.473526 111.003079,112.473526 C111.192768,109.052722 113.166109,106.10703 116.029826,104.510655 C117.505719,103.683961 118.381577,102.116093 118.381577,100.453202 L118.381577,99.6550145 C118.381577,97.9256083 117.501848,96.2722198 115.977565,95.4170189 C112.992873,93.7256216 110.981788,90.5708804 110.981788,86.9505299 C110.981788,83.3206772 112.992873,80.165936 115.977565,78.4745387 C117.501848,77.6193378 118.381577,75.9659494 118.381577,74.2365431 L118.381577,73.5998935 C118.381577,71.8704872 117.501848,70.2170988 115.977565,69.3523957 C112.992873,67.6705005 110.981788,64.5157594 110.981788,60.8859067 C110.981788,55.1180516 116.069506,50.5189712 122.079535,51.165123 C126.667869,51.6687413 130.367764,55.3175985 130.848759,59.8311589 C131.299754,64.0406478 129.025427,67.7750251 125.545223,69.5614448 C123.978357,70.3596323 123.019268,71.9750118 123.019268,73.7139203 L123.019268,74.113014 C123.019268,75.8994337 124.067394,77.4863065 125.668133,78.3320052 C128.78638,79.9853936 130.90586,83.2256548 130.90586,86.9505299 C130.90586,90.6659028 128.78638,93.906164 125.668133,95.5595524 C124.067394,96.4052511 123.019268,97.9921239 123.019268,99.7785436 L123.019268,100.177637 C123.019268,101.964057 124.067394,103.55093 125.668133,104.396628 C128.78638,106.050017 130.90586,109.280776 130.90586,113.005651 Z M93.9543375,145.218219 C97.8129509,143.032705 102.747756,144.325009 104.975629,148.116399 C107.203502,151.90779 105.880521,156.753929 102.021907,158.939442 C98.163294,161.124955 93.2294563,159.82315 91.0015837,156.041261 C88.7737111,152.24987 90.0957241,147.403732 93.9543375,145.218219 Z M116.910523,132.209662 C120.769136,130.014647 125.702974,131.316453 127.930846,135.107843 C130.158719,138.889732 128.836706,143.73587 124.978093,145.921384 C121.119479,148.116399 116.185641,146.814594 113.957769,143.023203 C111.729896,139.241314 113.051909,134.395176 116.910523,132.209662 Z M152,73.9419739 C152,78.322503 148.388175,81.8668356 143.93243,81.8668356 C139.476685,81.8668356 135.86486,78.322503 135.86486,73.9419739 C135.86486,69.570947 139.476685,66.0266143 143.93243,66.0266143 C148.388175,66.0266143 152,69.570947 152,73.9419739 Z M152,99.9685882 C152,104.349117 148.388175,107.89345 143.93243,107.89345 C139.476685,107.89345 135.86486,104.349117 135.86486,99.9685882 C135.86486,95.5975613 139.476685,92.0532287 143.93243,92.0532287 C148.388175,92.0532287 152,95.5975613 152,99.9685882 Z M152,125.995203 C152,130.375732 148.388175,133.920064 143.93243,133.920064 C139.476685,133.920064 135.86486,130.375732 135.86486,125.995203 C135.86486,121.624176 139.476685,118.079843 143.93243,118.079843 C148.388175,118.079843 152,121.624176 152,125.995203 Z M143.93243,40 C139.476685,40 135.86486,43.5443327 135.86486,47.9248618 C135.86486,52.2958886 139.476685,55.8402213 143.93243,55.8402213 C148.388175,55.8402213 152,52.2958886 152,47.9248618 C152,43.5443327 148.388175,40 143.93243,40 Z M105,98.1041542 C105,101.376882 103.246793,104.400805 100.399755,106.037169 L76.0096119,120.056307 L76,120.056307 L76,86.7165944 L104.990388,70.0563073 L105,70.0563073 L105,98.1041542 L105,98.1041542 Z" id="Fill-9" fill="#0074B0"></path>
            </g>
        </g>
    </g>
</svg>