<?xml version="1.0" encoding="UTF-8"?>
<svg width="583px" height="115px" viewBox="0 0 583 115" version="1.1" xmlns="http://www.w3.org/2000/svg" xmlns:xlink="http://www.w3.org/1999/xlink">
    <!-- Generator: Sketch 55.2 (78181) - https://sketchapp.com -->
    <title>Group 5</title>
    <desc>Created with Sketch.</desc>
    <g id="Srcmesh" stroke="none" stroke-width="1" fill="none" fill-rule="evenodd">
        <g id="Group-5" fill="#FFFFFF">
            <path d="M139.26,76.324 C140.334672,77.4813391 141.595326,78.6593273 143.042,79.858 C144.488674,81.0566727 146.100658,82.151995 147.878,83.144 C149.655342,84.136005 151.597989,84.9419969 153.706,85.562 C155.814011,86.1820031 158.066655,86.492 160.464,86.492 C161.86934,86.492 163.27466,86.2853354 164.68,85.872 C166.08534,85.4586646 167.366661,84.8593373 168.524,84.074 C169.681339,83.2886627 170.61133,82.3380056 171.314,81.222 C172.01667,80.1059944 172.368,78.8453404 172.368,77.44 C172.368,74.381318 170.880015,72.0046751 167.904,70.31 C164.927985,68.6153249 160.216032,66.9413416 153.768,65.288 C150.626651,64.5439963 147.71268,63.4693404 145.026,62.064 C142.33932,60.6586596 140.024676,58.9640099 138.082,56.98 C136.139324,54.9959901 134.630672,52.7226795 133.556,50.16 C132.481328,47.5973205 131.944,44.745349 131.944,41.604 C131.944,38.1319826 132.563994,34.866682 133.804,31.808 C135.044006,28.749318 136.924654,26.0420118 139.446,23.686 C141.967346,21.3299882 145.108648,19.4700068 148.87,18.106 C152.631352,16.7419932 157.074641,16.06 162.2,16.06 C166.416021,16.06 170.135984,16.4939957 173.36,17.362 C176.584016,18.2300043 179.332655,19.2633273 181.606,20.462 C183.879345,21.6606727 185.739326,22.9006603 187.186,24.182 C188.632674,25.4633397 189.727996,26.4759963 190.472,27.22 L179.684,39.124 C178.774662,38.3799963 177.720673,37.5740043 176.522,36.706 C175.323327,35.8379957 173.980007,35.0320037 172.492,34.288 C171.003993,33.5439963 169.371342,32.9240025 167.594,32.428 C165.816658,31.9319975 163.93601,31.684 161.952,31.684 C160.629327,31.684 159.32734,31.8906646 158.046,32.304 C156.76466,32.7173354 155.607338,33.2753298 154.574,33.978 C153.540662,34.6806702 152.714003,35.5073286 152.094,36.458 C151.473997,37.4086714 151.164,38.421328 151.164,39.496 C151.164,42.3066807 152.651985,44.5799913 155.628,46.316 C158.604015,48.0520087 162.695974,49.4986609 167.904,50.656 C170.962682,51.4000037 173.959319,52.4126603 176.894,53.694 C179.828681,54.9753397 182.453322,56.649323 184.768,58.716 C187.082678,60.782677 188.94266,63.3246516 190.348,66.342 C191.75334,69.3593484 192.456,73.0173118 192.456,77.316 C192.456,81.0360186 191.629342,84.466651 189.976,87.608 C188.322658,90.749349 186.070014,93.4773218 183.218,95.792 C180.365986,98.1066782 177.018019,99.9046603 173.174,101.186 C169.329981,102.46734 165.176022,103.108 160.712,103.108 C156.578646,103.108 152.81735,102.715337 149.428,101.93 C146.03865,101.144663 142.980014,100.11134 140.252,98.83 C137.523986,97.5486603 135.064678,96.0813416 132.874,94.428 C130.683322,92.7746584 128.802675,91.0800087 127.232,89.344 L139.26,76.324 Z M199.816,42.844 L216.928,42.844 L217.548,50.16 C219.036007,48.1759901 221.081987,46.2746758 223.686,44.456 C226.290013,42.6373242 229.658646,41.728 233.792,41.728 C235.362675,41.728 236.705994,41.8106658 237.822,41.976 C238.938006,42.1413342 240.033328,42.4306646 241.108,42.844 L238.256,58.592 C236.437324,58.0133304 234.288012,57.724 231.808,57.724 C227.591979,57.724 224.182013,58.9846541 221.578,61.506 C218.973987,64.0273459 217.672,67.6026435 217.672,72.232 L217.672,101 L199.816,101 L199.816,42.844 Z M295.96,93.312 C293.562655,95.9573466 290.400686,98.2306572 286.474,100.132 C282.547314,102.033343 277.89736,102.984 272.524,102.984 C267.811976,102.984 263.534019,102.219341 259.69,100.69 C255.845981,99.160659 252.560014,97.0113472 249.832,94.242 C247.103986,91.4726528 244.975341,88.1866857 243.446,84.384 C241.916659,80.5813143 241.152,76.4066894 241.152,71.86 C241.152,67.5613118 241.937325,63.5313521 243.508,59.77 C245.078675,56.0086479 247.248653,52.7226807 250.018,49.912 C252.787347,47.1013193 256.093981,44.8900081 259.938,43.278 C263.782019,41.6659919 267.977311,40.86 272.524,40.86 C277.814693,40.86 282.402647,41.7279913 286.288,43.464 C290.173353,45.2000087 293.438653,47.5146522 296.084,50.408 L285.296,62.064 C283.973327,60.5759926 282.361343,59.2533391 280.46,58.096 C278.558657,56.9386609 276.037349,56.36 272.896,56.36 C270.746656,56.36 268.824675,56.7939957 267.13,57.662 C265.435325,58.5300043 263.988673,59.6666596 262.79,61.072 C261.591327,62.4773404 260.682003,64.1099907 260.062,65.97 C259.441997,67.8300093 259.132,69.793323 259.132,71.86 C259.132,73.7613428 259.441997,75.6419907 260.062,77.502 C260.682003,79.3620093 261.591327,81.0153261 262.79,82.462 C263.988673,83.9086739 265.435325,85.0866621 267.13,85.996 C268.824675,86.9053379 270.746656,87.36 272.896,87.36 C275.954682,87.36 278.517323,86.7606727 280.584,85.562 C282.650677,84.3633273 284.303994,83.0613404 285.544,81.656 L295.96,93.312 Z M301.144,42.844 L318.256,42.844 L318.876,49.292 C320.694676,47.0599888 323.009319,45.2000074 325.82,43.712 C328.630681,42.2239926 331.937314,41.48 335.74,41.48 C338.054678,41.48 340.121324,41.7279975 341.94,42.224 C343.758676,42.7200025 345.349993,43.3606627 346.714,44.146 C348.078007,44.9313373 349.276662,45.7993286 350.31,46.75 C351.343338,47.7006714 352.190663,48.6306621 352.852,49.54 C355.249345,46.9773205 358.163316,44.9933404 361.594,43.588 C365.024684,42.1826596 368.599981,41.48 372.32,41.48 C379.760037,41.48 385.443314,43.5879789 389.37,47.804 C393.296686,52.0200211 395.26,57.765297 395.26,65.04 L395.26,101 L377.404,101 L377.404,67.892 C377.404,64.4199826 376.639341,61.7333428 375.11,59.832 C373.580659,57.9306572 371.286682,56.98 368.228,56.98 C364.755983,56.98 361.986677,58.1786547 359.92,60.576 C357.853323,62.9733453 356.82,66.0319814 356.82,69.752 L356.82,101 L339.584,101 L339.584,67.892 C339.584,64.4199826 338.819341,61.7333428 337.29,59.832 C335.760659,57.9306572 333.466682,56.98 330.408,56.98 C327.01865,56.98 324.270011,58.1786547 322.162,60.576 C320.053989,62.9733453 319,66.0319814 319,69.752 L319,101 L301.144,101 L301.144,42.844 Z M460.088,94.676 C459.426663,95.0893354 458.434673,95.7713286 457.112,96.722 C455.789327,97.6726714 454.074011,98.6026621 451.966,99.512 C449.857989,100.421338 447.357348,101.22733 444.464,101.93 C441.570652,102.63267 438.264019,102.984 434.544,102.984 C429.583975,102.984 425.12002,102.219341 421.152,100.69 C417.18398,99.160659 413.815347,97.0320136 411.046,94.304 C408.276653,91.5759864 406.168674,88.2900192 404.722,84.446 C403.275326,80.6019808 402.552,76.3653565 402.552,71.736 C402.552,67.6853131 403.233993,63.7793521 404.598,60.018 C405.962007,56.2566479 407.925321,52.9706807 410.488,50.16 C413.050679,47.3493193 416.191981,45.0966751 419.912,43.402 C423.632019,41.7073249 427.847976,40.86 432.56,40.86 C437.272024,40.86 441.405316,41.6866584 444.96,43.34 C448.514684,44.9933416 451.511321,47.2873187 453.95,50.222 C456.388679,53.1566813 458.227994,56.6699795 459.468,60.762 C460.708006,64.8540205 461.328,69.3386423 461.328,74.216 L461.328,77.192 L419.912,77.192 C419.994667,80.333349 421.37932,83.0819882 424.066,85.438 C426.75268,87.7940118 430.451976,88.972 435.164,88.972 C439.793356,88.972 443.554652,88.2900068 446.448,86.926 C449.341348,85.5619932 451.449327,84.384005 452.772,83.392 L460.088,94.676 Z M444.464,65.784 C444.464,64.5439938 444.216002,63.2833397 443.72,62.002 C443.223998,60.7206603 442.480005,59.542672 441.488,58.468 C440.495995,57.393328 439.256007,56.5046702 437.768,55.802 C436.279993,55.0993298 434.502677,54.748 432.436,54.748 C430.369323,54.748 428.550675,55.0993298 426.98,55.802 C425.409325,56.5046702 424.107338,57.393328 423.074,58.468 C422.040662,59.542672 421.255336,60.7206603 420.718,62.002 C420.180664,63.2833397 419.912,64.5439938 419.912,65.784 L444.464,65.784 Z M474.448,83.02 C476.349343,84.7560087 478.849984,86.2026609 481.95,87.36 C485.050016,88.5173391 488.046652,89.096 490.94,89.096 C493.585347,89.096 495.775991,88.7653366 497.512,88.104 C499.248009,87.4426634 500.116,86.1613428 500.116,84.26 C500.116,83.5159963 499.930002,82.8340031 499.558,82.214 C499.185998,81.5939969 498.504005,81.015336 497.512,80.478 C496.519995,79.940664 495.135342,79.3826696 493.358,78.804 C491.580658,78.2253304 489.328014,77.5640037 486.6,76.82 C484.367989,76.2413304 482.156678,75.4766714 479.966,74.526 C477.775322,73.5753286 475.832675,72.3973404 474.138,70.992 C472.443325,69.5866596 471.079338,67.8920099 470.046,65.908 C469.012662,63.9239901 468.496,61.6093466 468.496,58.964 C468.496,56.2359864 469.115994,53.7766776 470.356,51.586 C471.596006,49.3953224 473.311322,47.4940081 475.502,45.882 C477.692678,44.2699919 480.296652,43.0300043 483.314,42.162 C486.331348,41.2939957 489.575983,40.86 493.048,40.86 C498.008025,40.86 502.347981,41.4179944 506.068,42.534 C509.788019,43.6500056 513.218651,45.2826559 516.36,47.432 L508.796,59.212 C506.894657,57.9719938 504.724679,56.856005 502.286,55.864 C499.847321,54.871995 497.098682,54.376 494.04,54.376 C491.311986,54.376 489.328006,54.7686627 488.088,55.554 C486.847994,56.3393373 486.228,57.3933267 486.228,58.716 C486.228,60.6173428 487.509321,62.0226621 490.072,62.932 C492.634679,63.8413379 496.106645,64.8746609 500.488,66.032 C506.44003,67.6853416 510.75932,69.9586522 513.446,72.852 C516.13268,75.7453478 517.476,79.5893094 517.476,84.384 C517.476,87.6080161 516.752674,90.3773218 515.306,92.692 C513.859326,95.0066782 511.916679,96.928659 509.478,98.458 C507.039321,99.987341 504.270016,101.123996 501.17,101.868 C498.069985,102.612004 494.908016,102.984 491.684,102.984 C486.475974,102.984 481.557356,102.28134 476.928,100.876 C472.298644,99.4706596 468.537348,97.3213478 465.644,94.428 L474.448,83.02 Z M525.264,18.292 L542.996,18.292 L542.996,48.424 C544.897343,46.1919888 547.418651,44.4766727 550.56,43.278 C553.701349,42.0793273 556.883984,41.48 560.108,41.48 C566.804033,41.48 572.156647,43.4639802 576.166,47.432 C580.175353,51.4000198 582.18,57.2692945 582.18,65.04 L582.18,101 L564.448,101 L564.448,67.768 C564.448,64.3786497 563.580009,61.7333428 561.844,59.832 C560.107991,57.9306572 557.793348,56.98 554.9,56.98 C552.998657,56.98 551.304007,57.3313298 549.816,58.034 C548.327993,58.7366702 547.088005,59.6666609 546.096,60.824 C545.103995,61.9813391 544.360002,63.324659 543.864,64.854 C543.367998,66.383341 543.12,68.0159913 543.12,69.752 L543.12,101 L525.264,101 L525.264,18.292 Z" id="Srcmesh" fill-rule="nonzero"></path>
            <g id="Group">
                <g id="up-copy">
                    <polygon id="Path-4" points="50.9191814 0.0167416683 0 27.6413419 100 82.9659975 100 66.8320908 33.5215325 29.1568482 50.9191814 19.2184344"></polygon>
                    <polygon id="Path-5" points="50.8907618 0.0167416683 100 29.3101188 100 46.8893896 50.8907618 19.1929763"></polygon>
                    <polygon id="Path-6" points="40.1709645 29.1777013 52.2021603 35.8502852 63.1010449 29.6347421 50.9805595 22.9213818"></polygon>
                    <polygon id="Path-6-Copy" points="55.5532973 37.7099274 69.5285401 45.4460179 80.3676726 39.2100202 66.397985 31.5144405"></polygon>
                    <polygon id="Path-6-Copy-2" points="72.583897 47.1644703 87.5262856 55.4254737 98.3539011 49.2060788 83.4787168 40.9418876"></polygon>
                </g>
                <g id="down" transform="translate(50.000000, 73.500000) rotate(-180.000000) translate(-50.000000, -73.500000) translate(0.000000, 32.000000)">
                    <polygon id="Path-4" points="50.9191814 0.0167416683 0 27.6413419 100 82.9659975 100 66.8320908 33.5215325 29.1568482 50.9191814 19.2184344"></polygon>
                    <polygon id="Path-5" points="50.8396812 0.0167416683 100 29.3228574 100 46.8893896 50.8396812 19.1937234"></polygon>
                    <polygon id="Path-6" points="40.1709645 29.1777013 52.2021603 35.8502852 63.1010449 29.6347421 50.9805595 22.9213818"></polygon>
                    <polygon id="Path-6-Copy" points="55.5532973 37.7099274 69.5285401 45.4460179 80.3676726 39.2100202 66.397985 31.5144405"></polygon>
                    <polygon id="Path-6-Copy-2" points="72.583897 47.1644703 87.5262856 55.4254737 98.3539011 49.2060788 83.4787168 40.9418876"></polygon>
                </g>
            </g>
        </g>
    </g>
</svg>